<?xml version="1.0" standalone="no"?>
<!DOCTYPE svg PUBLIC "-//W3C//DTD SVG 20010904//EN"
 "http://www.w3.org/TR/2001/REC-SVG-20010904/DTD/svg10.dtd">
<svg version="1.0" xmlns="http://www.w3.org/2000/svg"
 width="70.000000pt" height="70.000000pt" viewBox="0 0 70.000000 70.000000"
 preserveAspectRatio="xMidYMid meet">
<metadata>
Created by potrace 1.11, written by Peter Selinger 2001-2013
</metadata>
<g transform="translate(0.000000,70.000000) scale(0.100000,-0.100000)"
fill="#000000" stroke="none">
<path d="M362 674 c-13 -6 -23 -14 -23 -18 3 -23 -2 -25 -29 -11 -16 9 -30 20
-30 25 0 6 -11 0 -24 -11 -15 -13 -23 -30 -21 -44 1 -13 -3 -23 -9 -22 -6 1
-10 -6 -8 -17 2 -12 -1 -15 -8 -11 -9 6 -9 2 -1 -14 8 -15 9 -21 1 -21 -6 0
-9 -4 -6 -8 2 -4 -4 -13 -14 -20 -13 -8 -21 -8 -25 -1 -5 6 -12 6 -23 -3 -13
-11 -14 -11 -7 2 8 13 6 13 -8 2 -9 -8 -21 -11 -27 -7 -6 4 -9 1 -8 -6 2 -7
-7 -14 -18 -15 -33 -2 -49 -15 -33 -25 11 -7 10 -9 -3 -9 -10 0 -18 -5 -18
-11 0 -5 4 -8 8 -5 5 3 9 -1 9 -9 0 -8 -3 -12 -7 -10 -4 2 -12 -7 -18 -20 -7
-16 -8 -26 -1 -30 5 -4 7 -10 4 -15 -3 -5 0 -12 6 -16 8 -5 9 -3 4 7 -5 8 11
-5 35 -29 24 -23 50 -40 57 -38 13 6 14 -19 0 -41 -4 -6 -1 -14 5 -16 9 -4 7
-6 -3 -6 -11 -1 -15 -9 -14 -26 2 -14 0 -25 -4 -25 -4 0 -7 -9 -7 -20 0 -11 4
-20 9 -20 5 0 5 -9 2 -20 -5 -16 -2 -20 19 -20 14 0 26 5 26 12 0 26 14 -5 19
-42 1 -3 17 -7 36 -8 23 -2 35 2 35 10 0 9 3 8 10 -2 7 -11 10 -11 10 -2 0 7
5 10 10 7 6 -3 10 -1 10 5 0 6 5 8 12 4 7 -5 9 -2 5 9 -4 11 -2 14 9 10 7 -3
14 0 14 6 0 22 51 11 77 -16 15 -16 23 -21 19 -13 -6 11 -4 11 6 -1 8 -10 25
-15 46 -14 18 2 35 -2 39 -8 4 -6 1 -7 -7 -2 -8 5 -11 4 -6 -3 3 -5 0 -12 -6
-15 -7 -3 -3 -4 9 -4 12 1 20 4 17 8 -2 4 1 11 7 14 5 4 8 14 5 22 -3 8 -1 11
4 8 6 -3 10 -1 10 5 0 7 6 10 13 8 19 -7 48 27 34 41 -8 8 -7 11 3 11 9 0 8 5
-6 16 -10 8 -13 13 -6 9 8 -4 12 2 12 20 0 18 -4 24 -12 19 -10 -5 -10 -4 -1
6 15 17 -2 54 -20 43 -8 -5 -8 -2 1 9 10 13 10 17 0 21 -12 5 16 11 36 8 5 -1
6 5 2 14 -3 9 -2 13 4 10 6 -3 10 0 10 7 0 9 3 9 10 -2 8 -13 10 -13 10 1 0 9
8 23 18 33 20 17 28 76 11 76 -5 0 -9 14 -9 30 0 17 -5 30 -11 30 -5 0 -7 6
-3 13 4 6 3 9 -1 4 -5 -4 -17 1 -28 10 -12 11 -17 12 -12 4 6 -10 4 -12 -6 -5
-12 7 -60 13 -122 15 -15 0 -16 3 -7 15 7 8 8 14 3 14 -5 0 -9 10 -10 22 -1
11 -8 25 -15 29 -10 7 -10 9 2 9 12 1 12 3 -2 11 -10 5 -15 16 -11 25 3 8 2
14 -3 13 -22 -4 -33 2 -36 19 -3 15 -6 16 -26 6z m-92 -28 c0 -2 -7 -7 -16
-10 -8 -3 -12 -2 -9 4 6 10 25 14 25 6z"/>
<path d="M290 671 c0 -5 7 -12 16 -15 14 -5 15 -4 4 9 -14 17 -20 19 -20 6z"/>
<path d="M680 391 c0 -6 4 -13 10 -16 6 -3 7 1 4 9 -7 18 -14 21 -14 7z"/>
</g>
</svg>
